<svg width="110" height="132" viewBox="0 0 110 132" fill="none" xmlns="http://www.w3.org/2000/svg">
<path d="M55 90.125C24.6125 90.125 0 102.431 0 117.625V131.375H110V117.625C110 102.431 85.3875 90.125 55 90.125ZM27.5 48.875C27.5 56.1685 30.3973 63.1632 35.5546 68.3204C40.7118 73.4777 47.7065 76.375 55 76.375C62.2935 76.375 69.2882 73.4777 74.4454 68.3204C79.6027 63.1632 82.5 56.1685 82.5 48.875M51.5625 0.75C49.5 0.75 48.125 2.19375 48.125 4.1875V24.8125H41.25V7.625C41.25 7.625 25.7812 13.5375 25.7812 33.4062C25.7812 33.4062 20.625 34.3688 20.625 42H89.375C89.0312 34.3688 84.2188 33.4062 84.2188 33.4062C84.2188 13.5375 68.75 7.625 68.75 7.625V24.8125H61.875V4.1875C61.875 2.19375 60.5687 0.75 58.4375 0.75H51.5625Z" fill="black"/>
</svg>
