<svg width="110" height="111" viewBox="0 0 110 111" fill="none" xmlns="http://www.w3.org/2000/svg">
<path d="M55 0.5C62.2935 0.5 69.2882 3.39731 74.4454 8.55456C79.6027 13.7118 82.5 20.7065 82.5 28C82.5 35.2935 79.6027 42.2882 74.4454 47.4454C69.2882 52.6027 62.2935 55.5 55 55.5C47.7065 55.5 40.7118 52.6027 35.5546 47.4454C30.3973 42.2882 27.5 35.2935 27.5 28C27.5 20.7065 30.3973 13.7118 35.5546 8.55456C40.7118 3.39731 47.7065 0.5 55 0.5ZM55 69.25C85.3875 69.25 110 81.5563 110 96.75V110.5H0V96.75C0 81.5563 24.6125 69.25 55 69.25Z" fill="black"/>
</svg>
